<svg width="79" height="12" viewBox="0 0 79 12" fill="none" xmlns="http://www.w3.org/2000/svg">
<g clip-path="url(#clip0_12974_904)">
<path d="M15.7968 9.1496C11.2585 9.1496 9.24467 7.73918 9.24467 5.99754C9.24467 4.25592 11.2585 2.84955 15.7968 2.84955C19.949 2.84955 22.3448 4.26001 22.3448 5.99754C22.3448 7.73507 20.2023 9.1496 15.7968 9.1496ZM15.7968 0C5.58663 0 0.5625 2.68601 0.5625 5.99754C0.5625 9.30902 5.43716 11.9991 15.7968 11.9991C26.5925 11.9991 31.027 9.31313 31.027 5.99754C31.027 2.68192 26.6091 0 15.7968 0Z" fill="white"/>
<path d="M78.5587 0H71.4004V11.9991H78.5587V0Z" fill="white"/>
<path d="M58.6016 0L51.0613 6.99099L43.5209 0H33.0117V11.9991H40.1701V4.73834L48.0924 11.9991H54.0343L61.9524 4.73834V11.9991H69.1149V0H58.6016Z" fill="white"/>
</g>
<defs>
<clipPath id="clip0_12974_904">
<rect width="78.8516" height="12" fill="white"/>
</clipPath>
</defs>
</svg>
