<svg width="231" height="12" viewBox="0 0 231 12" fill="none" xmlns="http://www.w3.org/2000/svg">
<path d="M2.89607 0H2.39557L0 12H0.50021L2.89607 0Z" fill="#FFB300" fill-opacity="0.5"/>
<path d="M8.89441 0H8.30573L5.91016 12H6.49884L8.89441 0Z" fill="#FFB300" fill-opacity="0.5"/>
<path d="M14.893 0H14.2159L11.8203 12H12.4974L14.893 0Z" fill="#FFB300" fill-opacity="0.5"/>
<path d="M20.8916 0H20.126L17.7305 12H18.4961L20.8916 0Z" fill="#FFB300" fill-opacity="0.5"/>
<path d="M26.8902 0H26.0362L23.6406 12H24.4947L26.8902 0Z" fill="#FFB300" fill-opacity="0.5"/>
<path d="M32.8908 0H31.9483L29.5527 12H30.4952L32.8908 0Z" fill="#FFB300" fill-opacity="0.5"/>
<path d="M38.8874 0H37.8565L35.4609 12H36.4919L38.8874 0Z" fill="#FFB300" fill-opacity="0.5"/>
<path d="M44.886 0H43.767L41.3711 12H42.4905L44.886 0Z" fill="#FFB300" fill-opacity="0.5"/>
<path d="M50.8863 0H49.6788L47.2832 12H48.4908L50.8863 0Z" fill="#FFB300" fill-opacity="0.5"/>
<path d="M56.883 0H55.587L53.1914 12H54.4874L56.883 0Z" fill="#FFB300" fill-opacity="0.5"/>
<path d="M62.8816 0H61.4971L59.1016 12H60.486L62.8816 0Z" fill="#FFB300" fill-opacity="0.5"/>
<path d="M68.8821 0H67.4092L65.0137 12H66.4866L68.8821 0Z" fill="#FFB300" fill-opacity="0.5"/>
<path d="M74.881 0H73.3194L70.9238 12H72.4852L74.881 0Z" fill="#FFB300" fill-opacity="0.5"/>
<path d="M80.8777 0H79.2276L76.832 12H78.4818L80.8777 0Z" fill="#FFB300" fill-opacity="0.5"/>
<path d="M86.8782 0H85.14L82.7441 12H84.4827L86.8782 0Z" fill="#FFB300" fill-opacity="0.5"/>
<path d="M92.8765 0H91.0499L88.6543 12H90.481L92.8765 0Z" fill="#FFB300" fill-opacity="0.5"/>
<path d="M98.8752 0H96.96L94.5645 12H96.4796L98.8752 0Z" fill="#FFB300" fill-opacity="0.5"/>
<path d="M104.876 0H102.872L100.477 12H102.48L104.876 0Z" fill="#FFB300" fill-opacity="0.5"/>
<path d="M110.872 0H108.78L106.385 12H108.477L110.872 0Z" fill="#FFB300" fill-opacity="0.5"/>
<path d="M116.871 0H114.69L112.295 12H114.475L116.871 0Z" fill="#FFB300" fill-opacity="0.5"/>
<path d="M122.872 0H120.603L118.207 12H120.476L122.872 0Z" fill="#FFB300" fill-opacity="0.5"/>
<path d="M128.868 0H126.511L124.115 12H126.473L128.868 0Z" fill="#FFB300" fill-opacity="0.5"/>
<path d="M134.867 0H132.421L130.025 12H132.471L134.867 0Z" fill="#FFB300" fill-opacity="0.5"/>
<path d="M140.867 0H138.333L135.938 12H138.471L140.867 0Z" fill="#FFB300" fill-opacity="0.5"/>
<path d="M146.866 0H144.243L141.848 12H144.47L146.866 0Z" fill="#FFB300" fill-opacity="0.5"/>
<path d="M152.863 0H150.151L147.756 12H150.467L152.863 0Z" fill="#FFB300" fill-opacity="0.5"/>
<path d="M158.863 0H156.064L153.668 12H156.468L158.863 0Z" fill="#FFB300" fill-opacity="0.5"/>
<path d="M164.862 0H161.974L159.578 12H162.466L164.862 0Z" fill="#FFB300" fill-opacity="0.5"/>
<path d="M170.858 0H167.882L165.486 12H168.463L170.858 0Z" fill="#FFB300" fill-opacity="0.5"/>
<path d="M176.859 0H173.794L171.398 12H174.463L176.859 0Z" fill="#FFB300" fill-opacity="0.5"/>
<path d="M182.857 0H179.704L177.309 12H180.462L182.857 0Z" fill="#FFB300" fill-opacity="0.5"/>
<path d="M188.854 0H185.612L183.217 12H186.458L188.854 0Z" fill="#FFB300" fill-opacity="0.5"/>
<path d="M194.855 0H191.524L189.129 12H192.459L194.855 0Z" fill="#FFB300" fill-opacity="0.5"/>
<path d="M200.853 0H197.435L195.039 12H198.458L200.853 0Z" fill="#FFB300" fill-opacity="0.5"/>
<path d="M206.852 0H203.345L200.949 12H204.456L206.852 0Z" fill="#FFB300" fill-opacity="0.5"/>
<path d="M212.85 0H209.255L206.859 12H210.454L212.85 0Z" fill="#FFB300" fill-opacity="0.5"/>
<path d="M218.849 0H215.165L212.77 12H216.453L218.849 0Z" fill="#FFB300" fill-opacity="0.5"/>
<path d="M224.848 0H221.075L218.68 12H222.452L224.848 0Z" fill="#FFB300" fill-opacity="0.5"/>
<path d="M230.846 0H226.985L224.59 12H228.451L230.846 0Z" fill="#FFB300" fill-opacity="0.5"/>
</svg>
