<svg width="128" height="16" viewBox="0 0 128 16" fill="none" xmlns="http://www.w3.org/2000/svg">
<g clip-path="url(#clip0_820_8642)">
<path d="M11.9966 9.76187H3.48456V7.64987H14.4606C14.1726 6.75387 13.2446 5.92188 11.6126 5.92188H3.64456C1.82056 5.92188 0.764563 6.59388 0.764563 8.06588V9.63388C0.764563 10.9139 1.85256 11.6499 3.45256 11.6499H12.0606V13.8899H0.476562C0.764563 15.1059 1.69256 15.7459 3.35656 15.7459H12.0286C13.8526 15.7459 14.7486 15.0419 14.7486 13.5379V11.9699C14.7486 10.5939 13.6926 9.85787 11.9966 9.76187Z" fill="white"/>
<path d="M29.3788 5.95312H18.8828V15.7771H21.8588V12.0011H29.6028C31.7468 12.0011 32.9308 11.2651 32.9308 9.53712V8.44912C32.8988 6.84912 31.5548 5.95312 29.3788 5.95312ZM30.3388 9.08912C30.3388 9.79313 30.2108 10.1771 29.0588 10.1771H21.8588L21.8908 7.61712H28.9308C30.2108 7.61712 30.3708 8.00113 30.3708 8.67313V9.08912H30.3388Z" fill="white"/>
<path d="M41.5701 5.53906L39.7781 7.74706L42.8181 11.9391H36.4821L34.9141 13.6031H44.0661L45.6341 15.7791H49.1541L41.5701 5.53906Z" fill="white"/>
<path d="M54.8517 7.64988H65.9877C65.6997 6.49787 64.5798 5.92188 62.9798 5.92188H54.6598C53.2198 5.92188 51.8438 6.49788 51.8438 8.06588V13.5699C51.8438 15.1379 53.2198 15.7139 54.6598 15.7139H63.0758C64.9958 15.7139 65.6677 15.1699 65.9877 13.8579H54.8517V7.64988Z" fill="white"/>
<path d="M73.0549 13.922V10.914H79.0389V9.25H70.0469V15.778H83.3269V13.922H73.0549Z" fill="white"/>
<path d="M83.7752 5.95312H70.3672V7.68112H83.7752V5.95312Z" fill="white"/>
<path d="M92.0314 5.95312H87.3594L92.8634 9.98513C93.6634 9.44113 94.5914 8.86513 95.4234 8.38513L92.0314 5.95312ZM98.8154 10.9771C98.0154 11.5211 97.2154 12.1291 96.4474 12.7051L100.607 15.7451H105.311L98.8154 10.9771Z" fill="white"/>
<path d="M127.679 0.226562C102.079 1.69856 90.2391 12.6426 87.5831 15.2346L87.0391 15.7466H91.7751C104.575 2.91456 122.975 0.642563 127.679 0.226562Z" fill="white"/>
</g>
<defs>
<clipPath id="clip0_820_8642">
<rect width="128" height="16" fill="white"/>
</clipPath>
</defs>
</svg>
