<svg width="318" height="32" viewBox="0 0 318 32" fill="none" xmlns="http://www.w3.org/2000/svg">
<path d="M200.324 0.00561523C200.63 0.0139851 200.936 0.0410781 201.238 0.0866699C201.339 0.100645 201.442 0.118021 201.546 0.140381C202.831 0.40994 203.991 1.0976 204.844 2.09644C205.64 3.00031 206.129 4.13335 206.241 5.33276C206.252 5.48495 206.264 5.65134 206.273 5.8269L206.297 6.37866V16.4822C206.294 16.8567 206.274 17.2453 206.235 17.6394C206.221 17.7961 206.2 17.952 206.169 18.1062C205.934 19.2618 205.358 20.3206 204.515 21.1453C203.672 21.9699 202.6 22.5227 201.439 22.7322C200.978 22.8096 200.51 22.8497 200.042 22.8523H181.803C181.49 22.8523 181.168 22.8269 180.889 22.8269C180.577 22.8145 180.277 22.7094 180.025 22.5251C179.815 22.3761 179.642 22.1788 179.522 21.95C179.403 21.7211 179.34 21.4669 179.338 21.2087V19.9148C179.342 19.6638 179.405 19.417 179.524 19.196C179.652 18.9559 179.84 18.753 180.069 18.6062C180.298 18.4594 180.561 18.3741 180.833 18.3582H180.97C181.218 18.3358 181.468 18.3357 181.747 18.3357H200.025C200.207 18.3418 200.39 18.3331 200.57 18.3103C200.894 18.2593 201.191 18.0974 201.408 17.8523C201.626 17.6071 201.751 17.2933 201.764 16.9656V6.25854C201.767 6.07606 201.754 5.89276 201.725 5.71265C201.716 5.66817 201.697 5.62643 201.697 5.58472C201.658 5.44135 201.597 5.3047 201.518 5.17944C201.498 5.14874 201.476 5.12031 201.454 5.0896C201.335 4.93013 201.182 4.79908 201.006 4.70581C200.83 4.61256 200.635 4.5597 200.437 4.55054H178.775V30.365C178.776 30.5792 178.735 30.7918 178.653 30.99C178.572 31.188 178.453 31.3685 178.302 31.5203C178.151 31.672 177.971 31.7924 177.773 31.8748C177.576 31.9571 177.364 31.9994 177.149 31.9998H175.877C175.601 31.997 175.33 31.923 175.092 31.7839C174.853 31.6447 174.655 31.445 174.517 31.2058C174.371 30.95 174.291 30.6622 174.284 30.3679V2.44604C174.284 2.15264 174.31 1.87294 174.31 1.59351V1.53198C174.332 1.13846 174.5 0.766974 174.779 0.489014C175.059 0.211177 175.431 0.0458302 175.824 0.0251465H175.847C176.132 0.00558151 176.423 0.00561523 176.725 0.00561523H200.324ZM75.3213 0.00561523C75.9081 -0.0174143 76.4959 0.0304788 77.0713 0.148193C78.0922 0.370905 79.0369 0.857804 79.8096 1.56128C80.5823 2.26486 81.1555 3.16023 81.4727 4.15601C81.5034 4.25934 81.5287 4.34592 81.5566 4.4353C81.6989 4.91671 81.7645 5.4179 81.75 5.91968V10.0671L81.7471 20.4841V20.7634C81.7527 21.2973 81.7584 21.9017 81.2637 22.3992C81.1215 22.5452 80.9506 22.661 80.7627 22.74C80.3796 22.8718 79.9734 22.9238 79.5693 22.8933H56.1514C55.65 22.8967 55.1482 22.8609 54.6523 22.7869H54.5713C53.4276 22.58 52.3704 22.0403 51.5322 21.2351C50.694 20.4296 50.1117 19.3944 49.8594 18.2595C49.8147 18.0527 49.7699 17.8094 49.7363 17.53C49.711 17.313 49.6991 17.0943 49.7002 16.8757V13.3513C49.7035 13.0925 49.7209 12.8338 49.7529 12.5769C49.7753 12.4066 49.8034 12.2418 49.8369 12.0798C49.8705 11.9177 49.9095 11.7578 49.957 11.6013C50.1679 10.8896 50.5147 10.2256 50.9775 9.64526C51.2518 9.30045 51.5604 8.98429 51.8994 8.70288C52.8112 7.94949 53.9348 7.49751 55.1143 7.40894C55.226 7.38664 55.3657 7.38647 55.4551 7.38647H75.0811C75.333 7.39459 75.5793 7.46372 75.7988 7.58765C75.8406 7.61271 75.8829 7.63794 75.9219 7.66577C76.1254 7.80689 76.2926 7.99468 76.4102 8.21265C76.5277 8.43072 76.5926 8.67397 76.5986 8.92163C76.6154 9.20651 76.6152 9.5165 76.6152 9.83765V10.1677C76.614 10.3359 76.59 10.5037 76.5449 10.6658C76.4448 11.0144 76.2327 11.3208 75.9414 11.5369C75.65 11.7529 75.2954 11.8665 74.9326 11.8611H56.3438C56.0587 11.8611 55.7513 11.8697 55.374 11.8865C55.106 11.9126 54.8546 12.0292 54.6611 12.2166C54.3964 12.4626 54.2322 12.798 54.2002 13.158V16.9314C54.2051 17.0626 54.2247 17.193 54.2588 17.3201C54.3411 17.6015 54.5085 17.8507 54.7383 18.033C54.9681 18.2152 55.2492 18.3217 55.542 18.3376H77.1719V5.78198C77.1397 5.4569 76.9924 5.15386 76.7568 4.92749C76.5211 4.70101 76.2121 4.56569 75.8857 4.54663H53.1914C52.856 4.54663 52.5231 4.53296 52.2129 4.53296C51.7969 4.52259 51.4006 4.35166 51.1084 4.05542L51.0889 4.03589C50.8073 3.74101 50.6474 3.35076 50.6396 2.94312V1.86694C50.6225 1.61236 50.6576 1.35635 50.7432 1.11597C50.8287 0.875798 50.9627 0.655849 51.1367 0.469482C51.2222 0.388313 51.3157 0.315547 51.416 0.253662C51.6665 0.10727 51.9486 0.022751 52.2383 0.00561523H75.3213ZM114.021 0.00561523H115.871C116.11 -0.00491769 116.347 0.0405039 116.565 0.137451C116.784 0.234415 116.977 0.380143 117.129 0.564209C117.25 0.710411 117.339 0.880206 117.393 1.06226C117.446 1.24432 117.462 1.43545 117.439 1.62378C117.41 1.84618 117.335 2.06035 117.22 2.25269C117.104 2.44492 116.951 2.61161 116.769 2.74194L116.662 2.823L116.623 2.8562L116.553 2.90991L115.647 3.60522L115.301 3.8855L112.947 5.69604L110.815 7.33667L105.488 11.4373L108.067 13.4216L109.085 14.199L111.321 15.9373L113.929 17.9636L116.548 19.9812H116.567L116.587 19.9958C116.732 20.1043 116.87 20.2217 117 20.3474C117.028 20.3754 117.059 20.4066 117.087 20.4402C117.222 20.6043 117.32 20.7964 117.373 21.0027C117.426 21.2089 117.432 21.4245 117.392 21.6335C117.365 21.8324 117.295 22.023 117.188 22.1921C117.126 22.2939 117.051 22.3876 116.967 22.4714C116.91 22.5253 116.848 22.5741 116.782 22.6169C116.685 22.6839 116.58 22.7385 116.47 22.7791C116.356 22.8186 116.237 22.8437 116.117 22.8542C115.961 22.8682 115.787 22.8855 115.595 22.8855H113.761C113.202 22.8835 112.661 22.686 112.232 22.3269L111.98 22.1306L111.85 22.03L109.018 19.8503L101.79 14.2937L95.0352 19.5095L91.6816 22.1003L91.5781 22.1814L91.4209 22.3044C91.3063 22.3941 91.1858 22.4765 91.0605 22.5505C90.9217 22.633 90.7746 22.7006 90.6221 22.7537C90.4193 22.826 90.2056 22.8643 89.9902 22.866H89.7109C88.9787 22.866 88.2457 22.8494 87.5498 22.8494C87.288 22.8424 87.0327 22.7637 86.8125 22.6218C86.5923 22.4799 86.4153 22.2794 86.3008 22.0437C86.1459 21.7598 86.0925 21.4313 86.1504 21.113C86.2084 20.7948 86.374 20.5058 86.6191 20.2947L86.6611 20.2585C86.8093 20.1439 86.9634 19.9982 87.1367 19.864C89.1546 18.3119 91.1725 16.7588 93.1904 15.2048L94.3555 14.3074L98.0869 11.448L92.6426 7.25562L90.1104 5.29956L87.5752 3.34253L87.0166 2.91284L86.6611 2.63257C86.545 2.53578 86.4441 2.42184 86.3623 2.29468L86.3486 2.26929C86.233 2.07754 86.1609 1.86222 86.1387 1.6394C86.1165 1.41674 86.1443 1.19187 86.2197 0.981201C86.2885 0.795925 86.3939 0.626182 86.5293 0.482178C86.6646 0.338215 86.8272 0.222447 87.0078 0.142334L87.123 0.0925293L87.209 0.064209H87.2314C87.3462 0.0302057 87.4647 0.0105953 87.584 0.00561523H89.8115C90.3772 -0.00291379 90.9279 0.187426 91.3682 0.542725L93.6045 2.2644L94.2725 2.77808L96.002 4.11401L100.169 7.34253L101.785 8.58862L108.043 3.77905L108.971 3.06616L109.896 2.35034L110.563 1.84155L111.48 1.13745C111.693 0.97258 111.908 0.805115 112.115 0.637451C112.205 0.56553 112.298 0.498327 112.395 0.436279C112.88 0.130552 113.447 -0.0198683 114.021 0.00561523ZM277.983 0.0144043C278.492 0.0116093 279.018 0.00931851 279.477 0.369873C279.528 0.410419 279.578 0.454159 279.624 0.500732C279.852 0.728518 280.005 1.02179 280.061 1.3396C280.078 1.43502 280.09 1.53118 280.099 1.62769L280.119 1.91772V2.60815C280.147 3.00198 280.067 3.39625 279.89 3.74878C279.823 3.86791 279.74 3.97715 279.644 4.073C279.601 4.11528 279.556 4.15547 279.51 4.19312C279.049 4.55919 278.515 4.55933 277.998 4.55933H253.962C253.613 4.57507 253.282 4.72122 253.035 4.96851C252.789 5.21575 252.643 5.54636 252.628 5.89526V17.0535C252.641 17.3093 252.725 17.5565 252.869 17.7683C252.988 17.9434 253.145 18.0895 253.328 18.1951C253.512 18.3006 253.717 18.363 253.928 18.3777H277.618C277.897 18.3777 278.177 18.3972 278.456 18.3972H278.747C278.997 18.4327 279.234 18.5278 279.439 18.6736C279.645 18.8194 279.813 19.0122 279.929 19.2361C280.04 19.4484 280.1 19.6839 280.103 19.9236V21.2341C280.103 21.3449 280.092 21.4557 280.069 21.5642C279.992 21.9329 279.79 22.2643 279.498 22.5027C279.206 22.7411 278.842 22.872 278.465 22.8748H254.325C253.869 22.8703 253.414 22.8334 252.964 22.7634C251.821 22.5622 250.763 22.0288 249.921 21.2302C249.079 20.4315 248.491 19.402 248.229 18.2712C248.122 17.7867 248.066 17.292 248.064 16.7957V6.0603C248.063 5.44955 248.153 4.84204 248.33 4.25757C248.352 4.17656 248.38 4.09555 248.408 4.01733C248.873 2.68648 249.794 1.56236 251.008 0.844482L251.197 0.724365C251.518 0.55025 251.855 0.40678 252.203 0.294678C252.702 0.136088 253.22 0.0413693 253.743 0.0144043H277.983ZM236.778 0.0114746C237.375 -0.0103684 237.973 0.0441083 238.557 0.173584C239.051 0.29452 239.53 0.471922 239.984 0.701904C240.172 0.796876 240.353 0.90059 240.523 1.00952L240.694 1.12378C241.907 1.98376 242.76 3.26061 243.09 4.70972C243.137 4.90138 243.168 5.09765 243.182 5.29468V5.59644L243.198 5.68237V20.407C243.198 20.6808 243.182 20.9741 243.182 21.3093C243.169 21.6145 243.07 21.9106 242.896 22.1619C242.723 22.4129 242.482 22.6096 242.201 22.7292C242.009 22.8123 241.804 22.8585 241.595 22.866H217.667C217.141 22.8719 216.615 22.8371 216.094 22.7605C215.241 22.6199 214.429 22.2928 213.718 21.8025C213.006 21.3121 212.412 20.6703 211.977 19.9236C211.737 19.5222 211.55 19.0918 211.418 18.6433C211.373 18.4924 211.336 18.3381 211.306 18.1843C211.275 18.0309 211.253 17.8747 211.236 17.7185C211.195 17.3892 211.172 17.0571 211.166 16.7253V13.45C211.168 13.17 211.186 12.8903 211.217 12.6121C211.344 11.4706 211.803 10.3913 212.538 9.50854C213.273 8.62583 214.25 7.97788 215.35 7.64526C215.854 7.48257 216.379 7.38778 216.909 7.36499H236.214C236.61 7.34091 237.006 7.4296 237.354 7.61987C237.388 7.6422 237.421 7.66213 237.452 7.68726C237.519 7.73646 237.583 7.79072 237.643 7.84937C237.835 8.0389 237.974 8.2763 238.045 8.53687L238.07 8.6394C238.104 8.81748 238.124 8.9984 238.129 9.17944V9.76929C238.132 9.94529 238.112 10.1105 238.112 10.2585V10.3816C238.109 10.4274 238.103 10.4732 238.095 10.5183C238.035 10.8597 237.867 11.1728 237.615 11.4109C237.363 11.649 237.041 11.8 236.697 11.8406H236.65C236.537 11.8563 236.422 11.865 236.307 11.8679H217.815C217.514 11.8679 217.192 11.8767 216.862 11.8962C216.783 11.9002 216.704 11.9156 216.63 11.9431C216.361 12.0463 216.131 12.2294 215.968 12.4666C215.887 12.584 215.825 12.7131 215.783 12.8494C215.757 12.9412 215.735 13.0344 215.719 13.1287C215.703 13.2144 215.696 13.3014 215.696 13.3884V16.8269C215.694 16.9808 215.715 17.1342 215.758 17.282V17.3044C215.772 17.352 215.789 17.3986 215.809 17.4441C215.839 17.5112 215.873 17.5758 215.906 17.6345C216.024 17.8382 216.192 18.009 216.394 18.1306C216.595 18.2523 216.825 18.3206 217.061 18.3298H238.651V6.49585C238.651 6.21371 238.637 5.94552 238.612 5.69409C238.583 5.48083 238.496 5.27933 238.363 5.11011C238.242 4.9481 238.088 4.81404 237.91 4.71753C237.733 4.6211 237.537 4.5638 237.335 4.55054H214.62C214.327 4.55052 214.033 4.53394 213.754 4.53394H213.643C213.344 4.52337 213.055 4.4295 212.808 4.26245C212.561 4.09547 212.366 3.86207 212.245 3.5896C212.163 3.40181 212.119 3.19896 212.116 2.9939V1.59058C212.12 1.27952 212.218 0.976645 212.396 0.721436C212.544 0.507517 212.741 0.332113 212.971 0.20874C213.2 0.0854663 213.455 0.0174935 213.715 0.0114746H236.778ZM18.4414 0.00170898C18.787 -0.00265929 19.1327 0.0168505 19.4756 0.0603027C20.1922 0.153697 20.8872 0.373247 21.5273 0.70874C21.8456 0.875976 22.1477 1.07259 22.4297 1.29565C23.161 0.708545 24.0246 0.307998 24.9453 0.129639C25.2688 0.0653527 25.5965 0.0241347 25.9258 0.0065918H38.4531C38.7074 0.00659357 38.9872 0.00962955 39.2666 0.0319824C39.5719 0.0538562 39.8755 0.0971697 40.1748 0.160889C40.3563 0.19998 40.5349 0.244715 40.708 0.300537C41.8508 0.669067 42.8559 1.3758 43.5889 2.3269C44.276 3.21862 44.6945 4.28612 44.7979 5.40405L44.7383 5.62769V21.3269C44.728 21.5519 44.6705 21.7731 44.5693 21.9744C44.4682 22.1755 44.3256 22.3533 44.1514 22.4958C44.0373 22.5881 43.9115 22.6648 43.7773 22.7244C43.6876 22.7636 43.5939 22.794 43.498 22.8142C43.4 22.8367 43.2989 22.8476 43.1982 22.8474H41.8906C41.7469 22.8443 41.604 22.8235 41.4658 22.7839C41.1687 22.6936 40.9039 22.5189 40.7031 22.282C40.5024 22.0451 40.3743 21.7549 40.334 21.447V21.4001C40.3183 21.2862 40.3086 21.1713 40.3057 21.0564V5.94409C40.2994 5.63049 40.1899 5.32706 39.9932 5.08276C39.7964 4.83846 39.5238 4.66646 39.2188 4.59351H39.168C39.1092 4.5813 39.0492 4.57366 38.9893 4.57104H25.9346C25.6247 4.58082 25.3275 4.6975 25.0938 4.90112C24.86 5.10487 24.7034 5.38349 24.6514 5.68921C24.6402 5.7507 24.626 5.80431 24.626 5.88257V21.2351C24.6229 21.3422 24.6099 21.4488 24.5869 21.5535C24.4909 21.9783 24.2337 22.3493 23.8691 22.5876C23.6262 22.7466 23.343 22.8342 23.0527 22.8396C22.6028 22.8396 22.1582 22.8396 21.7334 22.8396C21.3147 22.829 20.9163 22.6581 20.6191 22.363C20.3219 22.0679 20.1482 21.6704 20.1348 21.2517V5.7312C20.0966 5.44838 19.9701 5.18503 19.7734 4.97827C19.5767 4.7715 19.3197 4.632 19.0391 4.57983C18.9847 4.5676 18.9294 4.55786 18.874 4.55151H4.5166V20.8181C4.51381 21.3519 4.51418 21.8638 4.02246 22.364C3.53056 22.8643 2.93203 22.865 2.37305 22.865H1.64355C1.21749 22.8568 0.810085 22.6859 0.504883 22.3884C0.199985 22.0911 0.0191929 21.6889 0 21.2634V2.39429C0 2.12317 0.0253906 1.8597 0.0253906 1.60815V1.49097C0.0491116 1.10041 0.216684 0.73266 0.495117 0.457764C0.773681 0.182803 1.14419 0.0202872 1.53516 0.00170898H18.4414ZM143.732 0.0397949H166.917C167.217 0.0514784 167.508 0.148249 167.755 0.319092C167.961 0.458273 168.13 0.644328 168.25 0.862061C168.37 1.07977 168.435 1.32278 168.442 1.57104V2.96851C168.442 3.15252 168.409 3.33496 168.345 3.50757C168.23 3.81224 168.025 4.0755 167.759 4.26245C167.492 4.44939 167.175 4.55212 166.85 4.5564H143.224C142.891 4.57225 142.575 4.70804 142.335 4.93921C142.095 5.17058 141.947 5.48195 141.919 5.81421V7.9353C141.94 8.26422 142.088 8.57244 142.332 8.7937C142.531 8.98907 142.79 9.11136 143.067 9.14233L143.277 9.16187C143.476 9.18142 143.682 9.1814 143.962 9.1814H162.864C163.239 9.1814 163.672 9.18735 164.11 9.22925C165.321 9.36021 166.461 9.86164 167.376 10.6648C168.291 11.4682 168.936 12.5351 169.223 13.7185C169.234 13.7658 169.246 13.8103 169.255 13.8513L169.281 13.9636V14.0251C169.455 15.3839 169.451 16.7604 169.268 18.1179C169.016 19.2846 168.419 20.3487 167.555 21.1716C166.69 21.9945 165.598 22.5384 164.421 22.7322C163.989 22.7994 163.552 22.8331 163.115 22.8328H140.328C139.781 22.8327 139.208 22.7739 138.767 22.3328C138.325 21.8913 138.274 21.3683 138.274 20.8513V20.1912C138.256 19.834 138.326 19.4775 138.479 19.1541C138.55 19.0123 138.645 18.8828 138.758 18.7712C138.957 18.596 139.191 18.4638 139.443 18.3816C139.696 18.2995 139.963 18.2694 140.228 18.2937H163.451C163.723 18.2935 163.989 18.214 164.216 18.0652C164.443 17.9163 164.622 17.7039 164.73 17.4548C164.807 17.2881 164.849 17.107 164.852 16.9236V16.3513C164.871 15.8764 164.877 15.4569 164.852 15.0378C164.854 14.8016 164.791 14.5684 164.671 14.365C164.551 14.1617 164.377 13.9948 164.169 13.8826C164.105 13.8463 164.037 13.8106 163.965 13.7771C163.782 13.7028 163.587 13.6642 163.39 13.6648H142.95C142.419 13.6494 141.894 13.5554 141.391 13.3855C140.553 13.1046 139.789 12.6393 139.154 12.0242C138.061 10.968 137.424 9.5255 137.38 8.00562C137.358 7.30973 137.358 6.57427 137.38 5.69116C137.397 5.12003 137.499 4.55394 137.685 4.01343C137.735 3.85996 137.793 3.71475 137.857 3.56128C137.922 3.40755 137.995 3.26744 138.07 3.12769C138.474 2.3731 139.037 1.71469 139.719 1.198C140.401 0.681415 141.187 0.318599 142.022 0.134521C142.33 0.0720379 142.641 0.0287339 142.953 0.00561523H143.403L143.732 0.0397949ZM310.983 0.0124512C311.468 0.0124805 311.952 0.0702226 312.423 0.185303C312.638 0.241186 312.842 0.306019 313.043 0.378662C313.978 0.701609 314.817 1.25524 315.481 1.98804C316.063 2.62912 316.494 3.3893 316.747 4.21362L316.858 4.57104C316.95 4.91477 317.008 5.26678 317.029 5.62183V11.7791C317.029 11.9356 317.007 12.0785 317.007 12.1931V12.2351C316.969 12.6032 316.804 12.9466 316.542 13.2078C316.28 13.4689 315.936 13.632 315.567 13.6687H315.525L315.29 13.6882H292.543C292.233 13.6882 291.922 13.6658 291.643 13.6658H291.548C291.247 13.6549 290.956 13.5581 290.709 13.3865C290.508 13.2467 290.341 13.0622 290.224 12.8474C290.106 12.6326 290.04 12.393 290.03 12.1482V11.9968C290.011 11.7231 290.011 11.4383 290.011 11.1423C289.99 10.7644 290.062 10.3867 290.223 10.0437C290.296 9.90426 290.39 9.77637 290.502 9.66577C290.7 9.49118 290.932 9.35869 291.183 9.27515C291.433 9.19167 291.698 9.15877 291.961 9.17944H312.426V6.04956C312.431 5.85974 312.403 5.66991 312.342 5.48999C312.263 5.26283 312.126 5.06006 311.945 4.90112C311.885 4.8503 311.821 4.80273 311.755 4.7605C311.573 4.64438 311.364 4.57524 311.148 4.55933H290.835C290.595 4.5636 290.36 4.63035 290.153 4.75171C289.946 4.87311 289.773 5.04534 289.652 5.25269C289.596 5.34959 289.551 5.45296 289.519 5.5603V5.57397C289.502 5.64557 289.491 5.71928 289.487 5.79272V16.9529C289.505 17.2921 289.647 17.6134 289.885 17.8562C290.122 18.0989 290.441 18.2469 290.779 18.2722C290.976 18.2824 291.174 18.2824 291.371 18.2722H314.457C314.759 18.2722 315.056 18.2947 315.335 18.2947H315.601C315.975 18.3474 316.319 18.5321 316.568 18.8162C316.818 19.1002 316.958 19.4644 316.962 19.8425V21.3914C316.915 21.7655 316.737 22.1112 316.46 22.3669C316.183 22.6226 315.824 22.7719 315.447 22.7888H315.357C315.095 22.8112 314.815 22.8113 314.536 22.8113H290.352L290.005 22.7664L289.795 22.7273L289.586 22.6824C288.737 22.5052 287.939 22.1377 287.252 21.6082C286.565 21.0786 286.006 20.4008 285.619 19.6248C285.462 19.3119 285.329 18.9877 285.22 18.655C285.084 18.2302 285.001 17.7898 284.974 17.3445V6.07788C284.975 5.57698 285.029 5.07707 285.136 4.58765C285.153 4.51777 285.17 4.44756 285.189 4.37769C285.472 3.3839 286.007 2.47965 286.741 1.75269C287.476 1.02573 288.385 0.500212 289.382 0.227295C289.518 0.190604 289.656 0.161233 289.795 0.138428C290.215 0.055507 290.642 0.0131838 291.069 0.0124512H310.983Z" fill="#F3F3F3"/>
</svg>
