<svg width="150" height="24" viewBox="0 0 150 24" fill="none" xmlns="http://www.w3.org/2000/svg">
<path d="M1.12746 1.49458L5.15445 7.57587C5.20888 7.6583 5.30141 7.70787 5.40041 7.70787H14.2064C14.3354 7.70787 14.3765 7.53444 14.2608 7.4768L1.46812 1.11149C1.22516 0.990197 0.977915 1.26823 1.12746 1.49458ZM5.7715 8.53681L7.64701 11.4227C7.72841 11.5482 7.89167 11.5926 8.0258 11.526L14.2604 8.42877C14.376 8.37153 14.3349 8.1977 14.2059 8.1977H5.95659C5.78176 8.1977 5.6768 8.39077 5.7715 8.53681ZM10.4588 15.1618L14.709 9.01473C14.781 8.91094 14.6666 8.77984 14.5534 8.83666L8.37716 11.9356C8.21989 12.0146 8.16676 12.2128 8.26359 12.3593L10.1142 15.158C10.1952 15.2805 10.3752 15.2823 10.4588 15.1614V15.1618ZM15.4897 22.7358V9.21035C15.4897 9.09074 15.3346 9.04251 15.2665 9.14114L10.7232 15.726C10.6555 15.8238 10.6537 15.9532 10.7189 16.0527L15.1529 22.8349C15.2523 22.9869 15.4892 22.9169 15.4892 22.7354L15.4897 22.7358Z" fill="white"/>
<path d="M30.3798 1.49444L26.3528 7.57576C26.2984 7.65819 26.2059 7.70772 26.1069 7.70772H17.3009C17.1719 7.70772 17.1308 7.53433 17.2465 7.47665L30.0391 1.11134C30.2825 0.990475 30.5293 1.26808 30.3798 1.49444ZM25.7358 8.5367L23.8603 11.4225C23.7789 11.5481 23.6156 11.5925 23.4815 11.5259L17.2469 8.42867C17.1312 8.37142 17.1724 8.19759 17.3013 8.19759H25.5507C25.7255 8.19759 25.8305 8.39066 25.7358 8.5367ZM21.0485 15.1617L16.7983 9.01462C16.7263 8.91083 16.8407 8.77973 16.9538 8.83651L23.1301 11.9355C23.2874 12.0145 23.3405 12.2126 23.2437 12.3592L21.393 15.1578C21.312 15.2804 21.1321 15.2821 21.0485 15.1613V15.1617ZM16.0176 22.7357V9.21024C16.0176 9.09063 16.1727 9.04236 16.2408 9.14103L20.7841 15.7259C20.8518 15.8237 20.8535 15.9531 20.7884 16.0526L16.3544 22.8348C16.255 22.9868 16.018 22.9168 16.018 22.7352L16.0176 22.7357Z" fill="white"/>
<path d="M50.1447 7.45801H49.8846L49.722 7.65249L44.063 16.2424L38.4365 7.68491L38.2739 7.49039H35.8672L36.355 8.23592L43.2175 18.6086C43.3474 18.8031 43.5428 18.9652 43.8029 19.0624H44.4858C44.7136 18.9328 44.9413 18.8031 45.1039 18.5762L51.9337 8.20354L52.4216 7.45801H50.2426H50.1447Z" fill="white"/>
<path d="M65.3328 13.2278C65.3328 14.654 64.9752 15.594 64.2272 16.1775C63.5115 16.761 62.1781 17.1499 60.4543 17.1499C58.7305 17.1499 57.4946 16.8258 56.6814 16.1775C55.9334 15.5617 55.5757 14.6216 55.5757 13.2278C55.5757 11.8339 55.9334 10.8939 56.6814 10.2781C57.4622 9.66218 58.7305 9.3056 60.4543 9.3056C62.1781 9.3056 63.414 9.62976 64.2272 10.2781C64.9425 10.8939 65.3328 11.8339 65.3328 13.2278ZM65.5606 8.72217C64.4222 7.78212 62.6984 7.2959 60.5194 7.2959C58.3401 7.2959 56.6167 7.78212 55.4459 8.72217C54.2423 9.72702 53.5918 11.2181 53.5918 13.2278C53.5918 15.2375 54.21 16.761 55.4131 17.7334C56.5515 18.6734 58.2753 19.1597 60.5194 19.1597C62.7635 19.1597 62.4706 19.0624 63.3813 18.8355C64.1621 18.641 64.9101 18.2521 65.5278 17.7658C66.7314 16.761 67.3492 15.2699 67.3492 13.2602C67.3492 11.2505 66.7314 9.75944 65.5278 8.75459" fill="white"/>
<path d="M82.5051 7.45801L76.6835 12.7092L70.8292 7.45801H67.8047L75.6426 14.5244V18.9976H77.6593V14.5244L85.4972 7.45801H82.4727H82.5051Z" fill="white"/>
<path d="M92.1971 7.9118C92.132 7.81455 92.0668 7.74971 92.0021 7.68491C91.8067 7.52281 91.5793 7.45801 91.3188 7.45801C90.9612 7.45801 90.6035 7.62007 90.4082 7.94423L89.3025 9.59735L86.9281 13.1305L83.5133 18.2521L83.0254 18.9976H85.4649L85.6275 18.8031L91.2864 10.2456L96.5554 18.2521L96.6529 18.3817L96.9454 18.8355L97.108 19.03H99.5147L99.0268 18.2844L92.1647 7.94423L92.1971 7.9118Z" fill="white"/>
<path d="M106.052 7.45801C103.841 7.45801 102.02 9.24077 102.02 11.445V18.9976H114.346V12.0609H107.678V14.0706H112.297V16.9555H104.068V11.5098C104.068 10.4077 104.979 9.50009 106.085 9.50009H114.508V7.49039H106.052V7.45801Z" fill="white"/>
<path d="M118.379 7.45801H117.891V18.9976H130.249V16.9879H119.907V14.1354H130.249V12.1257H119.907V9.50009H130.249V7.45801H118.379Z" fill="white"/>
<path d="M147.877 18.1545L142.868 14.1675C144.722 14.2647 146.283 12.8385 146.381 11.0233C146.478 9.20805 145.047 7.61972 143.193 7.52246H133.566V9.49978H142.803C143.519 9.49978 144.137 10.0832 144.169 10.7963C144.169 11.5095 143.584 12.1253 142.868 12.1578H133.566V18.9973H135.583V14.1675H139.583L145.502 18.9L145.633 18.9973H148.918L147.877 18.1545Z" fill="white"/>
</svg>
